<svg width="43" height="43" viewBox="0 0 43 43" fill="none" xmlns="http://www.w3.org/2000/svg">
<path d="M17.3826 1.29771C11.0212 2.66867 5.80581 6.63286 2.9822 12.2323C1.32124 15.5523 0.80635 17.7326 0.80635 21.5481C0.78974 24.6039 1.0721 26.2556 1.96902 28.6507C3.56353 32.8791 6.73594 36.8433 10.2406 38.9576L11.1541 39.5026L11.8351 39.2384C12.2835 39.0567 12.7154 39.0071 13.114 39.0732C14.1604 39.2549 14.3099 39.4035 14.3099 40.2294C14.3099 40.9232 14.3431 40.9892 14.9078 41.2205C15.2234 41.3526 15.7715 41.4847 16.1037 41.5013L16.7183 41.5343L16.9674 40.4937C17.2498 39.2879 17.7314 38.6933 18.5785 38.5446C19.3426 38.396 19.409 38.5281 19.5419 40.279C19.5917 41.0553 19.6748 41.7986 19.7246 41.9307C19.8242 42.2445 24.7573 42.0959 26.3518 41.716C34.3576 39.8165 40.636 33.1765 42.0644 25.0994C42.3467 23.5302 42.3467 19.6156 42.0644 17.9969C41.1176 12.5792 37.5964 7.27704 32.9125 4.25434C30.7367 2.85036 28.2785 1.84279 25.6874 1.29771C23.6776 0.884777 19.3093 0.884777 17.3826 1.29771ZM23.6943 3.3624C28.0293 3.95703 31.2516 5.49316 34.341 8.44978C37.2476 11.2412 39.1411 14.8586 39.7889 18.9384C40.1211 21.0196 40.1211 22.1923 39.8055 24.2075C38.9916 29.1957 36.55 33.226 32.4142 36.3643C31.0523 37.4049 28.0792 38.8419 26.385 39.3044C24.94 39.6843 21.8506 40.0808 21.6845 39.9156C21.6181 39.866 21.6679 38.4125 21.7842 36.7112C22.0831 31.9872 22.1164 32.4662 21.4852 32.4332C20.7544 32.4001 20.6049 32.2184 20.4388 31.2604C20.2561 30.1207 20.6381 29.3939 21.5682 29.0636C22.1662 28.8654 22.2991 28.7332 22.3821 28.3038C22.598 27.1806 22.4485 26.8998 21.452 26.586C20.9537 26.4208 20.3059 26.173 20.0069 26.0244C19.4422 25.7271 18.5619 24.7856 18.6948 24.6369C18.7446 24.5874 19.2927 24.7856 19.9073 25.0664C21.4021 25.7436 22.6479 25.9253 24.6078 25.7436C26.2853 25.5784 27.5311 25.7106 29.6903 26.2556C31.7333 26.7677 32.3146 26.8172 33.5769 26.5034C35.3043 26.0905 35.6365 25.3637 34.8558 23.745C34.4406 22.8695 33.062 21.6638 28.6273 18.3438C27.2321 17.3032 26.1026 16.3617 26.1026 16.2626C26.1026 16.1469 26.2521 15.9322 26.4514 15.7505C26.6507 15.5853 26.9829 15.1228 27.2155 14.7264C27.6141 14.0657 27.6307 13.9006 27.5311 12.7443C27.4812 12.0506 27.365 11.4229 27.2819 11.3403C26.8335 10.8944 24.6742 12.3975 24.0264 13.6032C23.6112 14.363 23.2292 14.363 22.6977 13.5867C22.3655 13.0747 22.2824 12.7608 22.2824 11.9185C22.2824 10.6962 22.0001 9.93636 21.3689 9.44083C20.7876 8.97834 20.2893 8.97834 19.7246 9.42432C19.1266 9.88681 19.1599 10.564 19.791 11.2908C21.153 12.8104 21.0866 14.8751 19.7412 13.5702C19.4422 13.2729 18.9439 12.6122 18.6284 12.1001C17.3328 9.90332 16.4193 9.17655 15.4725 9.57297C15.0241 9.75467 14.6421 10.3328 14.6421 10.8283C14.6421 11.4229 15.2234 12.0506 16.0871 12.3975C16.984 12.7608 17.6318 13.372 17.6318 13.851C17.6318 13.9997 17.366 14.33 17.0338 14.5943C16.7017 14.8586 16.2698 15.4202 16.0705 15.8661L15.6885 16.659L14.9909 15.9487C13.9279 14.8751 13.0642 14.5117 11.6025 14.5117C9.626 14.5117 9.01145 14.9246 9.95819 15.6349C10.2572 15.8496 10.7554 16.6425 11.287 17.7326C12.2005 19.5826 12.7818 20.1772 13.9611 20.4084C14.2601 20.4745 14.5424 20.6066 14.5756 20.7058C14.6255 20.8214 14.1604 22.8365 13.5458 25.182C12.134 30.6988 12.1839 30.352 12.6988 30.4676C13.4296 30.6493 13.795 31.3595 14.1272 33.2425C14.2434 33.8372 14.2102 34.0849 14.0441 34.2666C13.7784 34.5144 12.35 34.7456 11.4863 34.6465C10.9382 34.597 10.8883 34.63 10.689 35.2907C10.5561 35.6871 10.3568 36.0009 10.2406 36.0009C10.0246 36.0009 8.08132 34.184 7.30067 33.2425C4.51027 29.9225 2.8161 24.9342 3.08185 20.8874C3.43065 15.9487 5.05838 12.2323 8.3969 8.78013C11.2039 5.87306 15.0739 3.924 19.1266 3.39544C21.3689 3.09812 21.7011 3.09812 23.6943 3.3624ZM18.6948 27.511C18.8775 27.9734 18.7944 29.0636 18.5619 29.5261C18.1135 30.3685 17.3826 30.9136 16.5522 30.9961C15.8213 31.0952 15.7715 31.0622 15.0573 30.3189C14.6421 29.906 14.3099 29.4105 14.3099 29.2453C14.3099 28.7663 15.1237 27.9074 15.8878 27.5605C16.7515 27.1641 18.5453 27.1311 18.6948 27.511ZM19.6249 33.6885C19.9073 34.2336 20.173 35.0099 20.2229 35.4063C20.3225 36.034 20.2727 36.1661 19.8575 36.5625C19.2097 37.1737 18.7114 37.4049 17.665 37.6362C16.22 37.9335 15.6553 37.8839 15.4559 37.4214C15.2068 36.8764 15.4061 35.6541 15.8546 34.9769C16.1868 34.4979 18.645 32.6974 18.9938 32.6974C19.0602 32.6974 19.3426 33.1434 19.6249 33.6885Z" fill="#FFD464"/>
</svg>
